<?xml version="1.0" encoding="utf-8"?>
<!-- Generator: Adobe Illustrator 17.0.0, SVG Export Plug-In . SVG Version: 6.00 Build 0)  -->
<!DOCTYPE svg PUBLIC "-//W3C//DTD SVG 1.1//EN" "http://www.w3.org/Graphics/SVG/1.1/DTD/svg11.dtd">
<svg version="1.1" id="Layer_1" xmlns="http://www.w3.org/2000/svg" xmlns:xlink="http://www.w3.org/1999/xlink" x="0px" y="0px"
	 width="30px" height="30px" viewBox="0 0 30 30" enable-background="new 0 0 30 30" xml:space="preserve">
<path fill="#555555" d="M15.704,0C7.517,0,3.388,5.869,3.388,10.765c0,2.964,1.122,5.6,3.528,6.582
	c0.395,0.163,0.748,0.006,0.863-0.431c0.08-0.301,0.268-1.064,0.352-1.383c0.115-0.432,0.071-0.583-0.248-0.961
	c-0.694-0.818-1.138-1.877-1.138-3.379c0-4.354,3.258-8.253,8.484-8.253c4.627,0,7.17,2.827,7.17,6.603
	c0,4.969-2.199,9.163-5.463,9.163c-1.803,0-3.152-1.49-2.72-3.319c0.518-2.183,1.521-4.538,1.521-6.115
	c0-1.41-0.757-2.586-2.324-2.586c-1.843,0-3.323,1.907-3.323,4.46c0,1.626,0.55,2.727,0.55,2.727s-1.886,7.991-2.216,9.39
	c-0.658,2.787-0.099,6.203-0.051,6.547c0.028,0.205,0.29,0.254,0.41,0.1c0.169-0.222,2.365-2.932,3.111-5.64
	c0.212-0.766,1.212-4.736,1.212-4.736c0.599,1.143,2.349,2.147,4.21,2.147c5.539,0,9.297-5.049,9.297-11.808
	C26.612,4.76,22.283,0,15.704,0z"/>
</svg>
