<?xml version="1.0" encoding="utf-8"?>
<!-- Generator: Adobe Illustrator 17.0.0, SVG Export Plug-In . SVG Version: 6.00 Build 0)  -->
<!DOCTYPE svg PUBLIC "-//W3C//DTD SVG 1.1//EN" "http://www.w3.org/Graphics/SVG/1.1/DTD/svg11.dtd">
<svg version="1.1" id="Layer_1" xmlns="http://www.w3.org/2000/svg" xmlns:xlink="http://www.w3.org/1999/xlink" x="0px" y="0px"
	 width="30px" height="30px" viewBox="0 0 30 30" enable-background="new 0 0 30 30" xml:space="preserve">
<g>
	<path fill="#555555" d="M2.807,29.971c0.063,0.008,0.128,0.021,0.192,0.029h24.002c0.156-0.026,0.313-0.048,0.467-0.082
		c1.225-0.261,2.226-1.282,2.466-2.514c0.025-0.135,0.044-0.268,0.066-0.402V2.998c-0.021-0.131-0.039-0.264-0.064-0.394
		c-0.264-1.344-1.373-2.388-2.734-2.574c-0.057-0.007-0.111-0.02-0.167-0.029H2.965C2.82,0.026,2.674,0.046,2.531,0.078
		c-1.33,0.303-2.313,1.373-2.503,2.72C0.021,2.854,0.009,2.91,0,2.966v24.07c0.028,0.151,0.049,0.306,0.084,0.457
		C0.378,28.793,1.487,29.801,2.807,29.971z M21.485,3.657c0-0.679,0.539-1.221,1.215-1.222c0.945-0.001,1.89,0,2.835,0
		c0.678,0.001,1.215,0.541,1.215,1.22c0,0.947,0,1.895,0,2.842c0,0.636-0.517,1.181-1.152,1.197
		c-0.495,0.012-0.989,0.002-1.483,0.002v0.006c-0.455,0-0.912,0.001-1.367,0.001c-0.56-0.003-1.019-0.31-1.189-0.809
		c-0.044-0.133-0.071-0.278-0.072-0.419C21.482,5.536,21.484,4.597,21.485,3.657z M15,8.92c3.404-0.002,6.15,2.81,6.076,6.213
		c-0.072,3.301-2.819,6.015-6.216,5.942c-3.265-0.07-5.987-2.765-5.939-6.167C8.967,11.596,11.672,8.918,15,8.92z M3.245,12.245
		v-0.081c0.959,0,1.905,0,2.857,0c-0.743,2.543-0.541,4.993,0.727,7.327c0.852,1.566,2.071,2.781,3.624,3.651
		c3.073,1.725,6.885,1.552,9.78-0.421c1.116-0.76,2.03-1.717,2.733-2.869s1.136-2.399,1.294-3.74c0.158-1.34,0.034-2.655-0.37-3.947
		h2.863v0.092c0,4.433,0.001,8.869,0,13.302c0,0.644-0.55,1.192-1.195,1.192c-7.041,0.001-14.08,0.001-21.121,0
		c-0.639,0-1.192-0.55-1.192-1.188C3.244,21.124,3.245,16.684,3.245,12.245z"/>
</g>
</svg>
