<?xml version="1.0" encoding="utf-8"?>
<!-- Generator: Adobe Illustrator 17.0.0, SVG Export Plug-In . SVG Version: 6.00 Build 0)  -->
<!DOCTYPE svg PUBLIC "-//W3C//DTD SVG 1.1//EN" "http://www.w3.org/Graphics/SVG/1.1/DTD/svg11.dtd">
<svg version="1.1" id="Layer_1" xmlns="http://www.w3.org/2000/svg" xmlns:xlink="http://www.w3.org/1999/xlink" x="0px" y="0px"
	 width="30px" height="30px" viewBox="0 0 30 30" enable-background="new 0 0 30 30" xml:space="preserve">
<path fill="#555555" d="M29.172,3.26c-1.189,0.706-2.506,1.218-3.908,1.494c-1.122-1.196-2.722-1.944-4.493-1.944
	c-3.399,0-6.154,2.756-6.154,6.155c0,0.482,0.054,0.951,0.159,1.403C9.661,10.111,5.125,7.661,2.089,3.937
	c-0.53,0.909-0.833,1.966-0.833,3.095c0,2.135,1.086,4.019,2.738,5.123c-1.009-0.032-1.958-0.309-2.788-0.77
	c-0.001,0.026-0.001,0.052-0.001,0.078c0,2.982,2.122,5.468,4.937,6.035c-0.516,0.14-1.06,0.216-1.622,0.216
	c-0.397,0-0.782-0.038-1.158-0.111c0.784,2.445,3.056,4.225,5.749,4.274c-2.106,1.651-4.76,2.635-7.644,2.635
	c-0.496,0-0.987-0.029-1.468-0.086c2.724,1.747,5.959,2.765,9.435,2.765c11.321,0,17.512-9.378,17.512-17.512
	c0-0.267-0.006-0.533-0.017-0.797c1.202-0.866,2.246-1.95,3.071-3.185c-1.103,0.49-2.29,0.821-3.535,0.969
	C27.737,5.904,28.712,4.698,29.172,3.26z"/>
</svg>
