<?xml version="1.0" encoding="utf-8"?>
<!-- Generator: Adobe Illustrator 17.0.0, SVG Export Plug-In . SVG Version: 6.00 Build 0)  -->
<!DOCTYPE svg PUBLIC "-//W3C//DTD SVG 1.1//EN" "http://www.w3.org/Graphics/SVG/1.1/DTD/svg11.dtd">
<svg version="1.1" id="Layer_1" xmlns="http://www.w3.org/2000/svg" xmlns:xlink="http://www.w3.org/1999/xlink" x="0px" y="0px"
	 width="30px" height="30px" viewBox="0 0 30 30" enable-background="new 0 0 30 30" xml:space="preserve">
<path fill="#555555" d="M15.937,0v7.5h7.5v4.688h-7.5v7.5c0,1.742,0.166,3.141,0.351,3.636c0.185,0.493,0.527,0.887,1.03,1.185
	c0.667,0.399,1.425,0.6,2.282,0.6c1.522,0,3.292-0.517,4.776-1.67v4.688c-1.25,0.782-2.683,1.267-3.725,1.51
	C19.61,29.878,18.484,30,17.274,30c-1.265,0-2.486-0.139-3.643-0.521c-1.057-0.347-1.646-0.731-2.393-1.372
	c-0.744-0.643-1.107-1.288-1.395-2.013c-0.288-0.721-0.469-2.22-0.469-3.594V12.188h-3.75V7.5c1.201-0.088,2.194-0.427,3.032-1.14
	c0.845-0.718,1.52-1.578,2.027-2.582C11.194,2.773,11.25,1.543,11.25,0H15.937z"/>
</svg>
