<?xml version="1.0" encoding="utf-8"?>
<!-- Generator: Adobe Illustrator 18.1.1, SVG Export Plug-In . SVG Version: 6.00 Build 0)  -->
<svg version="1.1" id="Слой_1" xmlns="http://www.w3.org/2000/svg" xmlns:xlink="http://www.w3.org/1999/xlink" x="0px" y="0px"
	 viewBox="561.5 297.4 313 198" enable-background="new 561.5 297.4 313 198" xml:space="preserve">
<g>
	<g>
		<g>
			<path d="M705,373.3l-0.4,2h-1.2v-3.1h0.8c0.2-0.1,0.3-0.2,0.4-0.3c0.2-0.2,0.4-0.5,0.5-0.9l0.7-7.6h6v8.8h1.3v3.1H712l-0.4-2H705
				z M706.7,370.9c0,0.4-0.3,0.6-0.5,0.8c-0.1,0.1-0.3,0.2-0.5,0.3v0.1h4.6v-7.7h-3L706.7,370.9z"/>
			<path d="M715.3,373.3v-10h1.6v4.4h4.1v-4.4h1.6v10H721v-4.4h-4.1v4.4H715.3z"/>
			<path d="M725.4,373.3v-10h4.7c1.6,0,2.4,0.8,2.4,2.1v2.4c0,1.3-0.8,2.1-2.4,2.1H727v3.3H725.4z M727,368.9h3c0.6,0,1-0.4,1-1
				v-2.4c0-0.6-0.4-1-1-1h-3V368.9z"/>
		</g>
		<polygon points="698.3,334.6 698.3,333.7 696.7,333.7 692.6,341.6 688.4,341.6 688.4,333.7 686.7,333.7 686.7,350.9 688.4,350.9 
			688.4,342.9 692.6,342.9 697.3,350.9 698.9,350.9 698.9,350.1 694,342.2 		"/>
		<polygon points="718.1,320.1 723,327.6 724.6,327.6 724.6,326.8 719.2,319 724.2,311.3 724.2,310.4 722.6,310.4 718.1,317.8 
			717.9,317.8 713.4,310.4 711.8,310.4 711.8,311.3 716.8,319 711.4,326.8 711.4,327.6 713,327.6 717.9,320.1 		"/>
		<polygon points="736.5,350.9 738.3,350.9 738.3,335.1 746.8,335.1 746.8,350.9 748.5,350.9 748.5,333.7 736.5,333.7 		"/>
		<path d="M679.4,298.6c-1.5-1.5-4-1.5-5.5,0c-1.5,1.5-1.5,4,0,5.5c0.5,0.5,1.2,0.9,1.9,1V339c-1.7,0.4-3,2-3,3.8
			c0,1.9,1.3,3.4,3,3.8v33.9c-0.7,0.2-1.3,0.5-1.9,1c0,0,0,0,0.1-0.1c0,0,0,0-0.1,0.1c0,0,0,0-0.1,0.1c0,0,0,0,0.1-0.1
			c-1.5,1.5-1.5,4,0,5.5c1.5,1.5,4,1.5,5.5,0c0.5-0.5,0.9-1.2,1-1.9h33.7c0.4,1.7,1.9,3,3.8,3c1.8,0,3.4-1.3,3.8-3h33.7
			c0.2,0.7,0.5,1.4,1,1.9c0,0,0,0-0.1-0.1c0,0,0,0,0.1,0.1s0,0,0.1,0.1c0,0,0,0-0.1-0.1c1.5,1.5,4,1.5,5.5,0c1.5-1.5,1.5-4,0-5.5
			c-0.5-0.5-1.2-0.9-1.9-1v-33.9c1.7-0.4,3-2,3-3.8c0-1.9-1.3-3.4-3-3.8v-33.9c1.7-0.4,3-2,3-3.8c0-2.2-1.7-3.9-3.9-3.9
			c-1.8,0-3.4,1.3-3.8,3h-33.7c-0.4-1.7-1.9-3-3.8-3c-1.8,0-3.4,1.3-3.8,3h-33.7C680.3,299.8,680,299.1,679.4,298.6 M759.3,298.9
			c1.3,0,2.4,1.1,2.4,2.4c0,1.3-1.1,2.4-2.4,2.4s-2.4-1.1-2.4-2.4C756.9,300,758,298.9,759.3,298.9z M718,298.9
			c1.3,0,2.4,1.1,2.4,2.4c0,1.3-1.1,2.4-2.4,2.4c-1.3,0-2.4-1.1-2.4-2.4C715.6,300,716.7,298.9,718,298.9z M680.5,302.2h33.7
			c0.4,1.7,1.9,3,3.8,3c1.8,0,3.4-1.3,3.8-3h33.7c0.1,0.4,0.3,0.8,0.5,1.2l-36,36.1c-1.3-0.8-2.9-0.8-4.1,0l-36-36.1
			C680.2,303,680.4,302.6,680.5,302.2z M716.3,341.1c0.9-0.9,2.5-0.9,3.4,0c0.9,0.9,0.9,2.5,0,3.4c-0.9,0.9-2.5,0.9-3.4,0v0
			c0,0,0,0,0,0c0,0,0,0,0,0C715.4,343.6,715.4,342.1,716.3,341.1z M715.1,345.2C715.1,345.2,715.1,345.1,715.1,345.2
			C715.1,345.1,715.1,345.2,715.1,345.2z M678.6,299.8C678.6,299.8,678.5,299.8,678.6,299.8C678.5,299.8,678.6,299.8,678.6,299.8z
			 M675,303c-0.9-0.9-0.9-2.5,0-3.4c0.9-0.9,2.5-0.9,3.4,0c0,0-0.1-0.1-0.1-0.1c0,0,0.1,0.1,0.1,0.1l0,0c0.9,0.9,0.9,2.5,0,3.4
			C677.4,304,675.9,304,675,303z M674.3,342.8c0-1.3,1.1-2.4,2.4-2.4c1.3,0,2.4,1.1,2.4,2.4s-1.1,2.4-2.4,2.4
			C675.4,345.2,674.3,344.2,674.3,342.8z M678.4,386c-0.9,0.9-2.5,0.9-3.4,0c-0.9-0.9-0.9-2.5,0-3.4c0,0,0,0,0,0c0,0,0,0,0,0
			c0,0,0,0,0,0c0,0,0,0,0,0c0.9-0.9,2.5-0.9,3.4,0C679.3,383.5,679.3,385.1,678.4,386z M678.7,381c-0.4-0.2-0.8-0.4-1.2-0.5v-33.9
			c1.7-0.4,3-2,3-3.8c0-1.9-1.3-3.4-3-3.8v-33.9c0.4-0.1,0.8-0.3,1.2-0.5l36,36.1c-0.8,1.3-0.8,2.9,0,4.1L678.7,381z M718,386.7
			c-1.3,0-2.4-1.1-2.4-2.4s1.1-2.4,2.4-2.4c1.3,0,2.4,1.1,2.4,2.4S719.3,386.7,718,386.7z M755.5,383.4h-33.7c-0.4-1.7-1.9-3-3.8-3
			c-1.8,0-3.4,1.3-3.8,3h-33.7c-0.1-0.4-0.3-0.8-0.5-1.2l36-36.1c1.3,0.8,2.9,0.8,4.1,0l36,36.1C755.8,382.6,755.6,383,755.5,383.4z
			 M721.3,344.9c0.8-1.3,0.8-2.9,0-4.1l36-36.1c0.4,0.2,0.8,0.4,1.2,0.5V339c-1.7,0.4-3,2-3,3.8c0,1.9,1.3,3.4,3,3.8v33.9
			c-0.4,0.1-0.8,0.3-1.2,0.5L721.3,344.9z M761,382.6c0.9,0.9,0.9,2.5,0,3.4c-0.9,0.9-2.5,0.9-3.4,0l0,0c0,0,0,0,0,0c0,0,0,0,0,0
			c-0.9-0.9-0.9-2.5,0-3.4C758.6,381.7,760.1,381.7,761,382.6z M759.3,345.2c-1.3,0-2.4-1.1-2.4-2.4c0-1.3,1.1-2.4,2.4-2.4
			s2.4,1.1,2.4,2.4C761.7,344.2,760.6,345.2,759.3,345.2z"/>
	</g>
	<g>
		<path d="M656.8,404.9h2v1.1l-5.3,9.4l6.1,9.7v1.1h-2l-5.9-9.9h-5.2v9.9h-2.1v-21.3h2.1v9.7h5.2L656.8,404.9z"/>
		<path d="M669.6,426.6c-3.2,0-5-1.8-5-4.6v-12.8c0-2.8,1.8-4.6,5-4.6h5.5c3.2,0,5,1.8,5,4.6V422c0,2.8-1.8,4.6-5,4.6H669.6z
			 M675,424.9c1.7,0,2.9-1.2,2.9-2.9v-12.8c0-1.7-1.2-2.9-2.9-2.9h-5.5c-1.7,0-2.9,1.2-2.9,2.9V422c0,1.7,1.2,2.9,2.9,2.9H675z"/>
		<path d="M696.8,423.7l-6.5-16.4h-0.2l-2.4,19h-2v-1.1l2.7-20.2h3l6.7,16.4h0.2l6.7-16.4h3l2.7,20.2v1.1h-2l-2.4-19h-0.2l-6.5,16.4
			H696.8z"/>
		<path d="M716.9,426.3v-21.3h2.1v14l-0.3,4.4h0.2l10.3-18.4h2.6v21.3h-2.1v-14l0.3-4.4h-0.2l-10.3,18.4H716.9z"/>
		<path d="M746,426.3h-2.1v-19.6h-6.7v-1.7h15.5v1.1l-0.6,0.6H746V426.3z"/>
		<path d="M758,404.9h13.6v1.1l-0.6,0.6h-10.9v7.9h8.9v1.7h-8.9v8.4h11.5v1.7H758V404.9z"/>
		<path d="M785,426.3h-2.1v-19.6h-6.7v-1.7h15.5v1.1l-0.6,0.6H785V426.3z"/>
	</g>
	<g>
		<path d="M563.5,458.7h-2v-1.1l6.7-9.6l-6.2-9.6v-1.1h2l5.6,9.1h0.2l5.6-9.1h2v1.1l-6.2,9.6l6.7,9.6v1.1h-2l-6.1-9.3h-0.2
			L563.5,458.7z"/>
		<path d="M583.9,437.4l7,14.3h0.2l5.9-14.3h2v1.1l-7,16.3c-1.1,2.6-2.7,4.3-5.5,4.3h-1.7v-1.7h1.7c1.5,0,2.3-0.9,3.2-2.6l0.3-0.6
			l-7.9-15.7v-1.1H583.9z"/>
		<path d="M617.6,437.4V457h3v5.9H619l-0.6-4.3h-15.9l-0.6,4.3h-1.7V457h1.7c0.3-0.2,0.7-0.5,1-0.8c0.5-0.5,1-1.3,1.2-2.4l1.5-16.4
			H617.6z M606.1,453.8c-0.1,1.1-0.6,1.8-1.1,2.3c-0.3,0.3-0.6,0.5-0.9,0.7v0.2h11.4v-18h-8L606.1,453.8z"/>
		<path d="M630.7,459c-3.2,0-5-1.8-5-4.6v-12.8c0-2.8,1.8-4.6,5-4.6h5.5c3.2,0,5,1.8,5,4.6v12.8c0,2.8-1.8,4.6-5,4.6H630.7z
			 M636.1,457.3c1.7,0,2.9-1.2,2.9-2.9v-12.8c0-1.7-1.2-2.9-2.9-2.9h-5.5c-1.7,0-2.9,1.2-2.9,2.9v12.8c0,1.7,1.2,2.9,2.9,2.9H636.1z
			"/>
		<path d="M653.7,447.1h4.8v-9.7h2.1v9.7h4.8l4.9-9.7h2v1.1l-5,9.4l5.8,9.7v1.1h-2l-5.6-9.9h-4.8v9.9h-2.1v-9.9h-4.8l-5.6,9.9h-2
			v-1.1l5.8-9.7l-5-9.4v-1.1h2L653.7,447.1z"/>
		<path d="M678.8,437.4h13.6v1.1l-0.6,0.6h-10.9v7.9h8.9v1.7h-8.9v8.4h11.5v1.7h-13.6V437.4z"/>
		<path d="M697.5,442c0-2.8,1.8-4.6,5-4.6h8.8v1.1l-0.6,0.6h-8.2c-1.7,0-2.9,1.2-2.9,2.9v12.2c0,1.7,1.2,2.9,2.9,2.9h8.8v1.7h-8.8
			c-3.2,0-5-1.8-5-4.6V442z"/>
		<path d="M724.6,458.7h-2.1v-19.6h-6.7v-1.7h15.5v1.1l-0.6,0.6h-6.1V458.7z"/>
		<path d="M745.7,437.4c3.2,0,5,1.8,5,4.6v2c0,1.5-0.6,2.3-1.2,2.8c-0.4,0.3-0.8,0.5-1.2,0.7v0.2c0.6,0.2,1.2,0.4,1.7,0.7
			c0.8,0.6,1.7,1.5,1.7,3.1v2.7c0,2.8-1.8,4.6-5,4.6h-10v-21.3H745.7z M738.8,439.1v7.8h7c1.7,0,2.9-1.2,2.9-2.9v-2
			c0-1.7-1.2-2.9-2.9-2.9H738.8z M746.6,457c1.7,0,2.9-1.2,2.9-2.9v-2.7c0-1.7-1.2-2.9-2.9-2.9h-7.9v8.5H746.6z"/>
		<path d="M757.6,437.4h13.6v1.1l-0.6,0.6h-10.9v7.9h8.9v1.7h-8.9v8.4h11.5v1.7h-13.6V437.4z"/>
		<path d="M779,437.4v9.7h10.6v-9.7h2.1v21.3h-2.1v-9.9H779v9.9h-2.1v-21.3H779z"/>
		<path d="M800.4,437.4v9.7H811v-9.7h2.1v21.3H811v-9.9h-10.6v9.9h-2.1v-21.3H800.4z"/>
		<path d="M824.4,459c-3.2,0-5-1.8-5-4.6v-12.8c0-2.8,1.8-4.6,5-4.6h5.5c3.2,0,5,1.8,5,4.6v12.8c0,2.8-1.8,4.6-5,4.6H824.4z
			 M829.9,457.3c1.7,0,2.9-1.2,2.9-2.9v-12.8c0-1.7-1.2-2.9-2.9-2.9h-5.5c-1.7,0-2.9,1.2-2.9,2.9v12.8c0,1.7,1.2,2.9,2.9,2.9H829.9z
			"/>
		<path d="M841.2,458.7v-21.3h13.2v1.1l-0.6,0.6h-10.5v19.6H841.2z"/>
		<path d="M864,459c-3.2,0-5-1.8-5-4.6v-12.8c0-2.8,1.8-4.6,5-4.6h5.5c3.2,0,5,1.8,5,4.6v12.8c0,2.8-1.8,4.6-5,4.6H864z
			 M869.5,457.3c1.7,0,2.9-1.2,2.9-2.9v-12.8c0-1.7-1.2-2.9-2.9-2.9H864c-1.7,0-2.9,1.2-2.9,2.9v12.8c0,1.7,1.2,2.9,2.9,2.9H869.5z"
			/>
	</g>
	<g>
		<path d="M589.9,473.8v21.3h-2.1v-19.6h-10.6v19.6h-2.1v-21.3H589.9z"/>
		<path d="M605.9,473.8c3.2,0,5,1.8,5,4.6v4.9c0,2.8-1.8,4.6-5,4.6h-7.3v7.3h-2.1v-21.3H605.9z M598.6,475.5v10.7h7.3
			c1.7,0,2.9-1.2,2.9-2.9v-4.9c0-1.7-1.2-2.9-2.9-2.9H598.6z"/>
		<path d="M621.6,495.4c-3.2,0-5-1.8-5-4.6v-12.8c0-2.8,1.8-4.6,5-4.6h5.5c3.2,0,5,1.8,5,4.6v12.8c0,2.8-1.8,4.6-5,4.6H621.6z
			 M627.1,493.8c1.7,0,2.9-1.2,2.9-2.9v-12.8c0-1.7-1.2-2.9-2.9-2.9h-5.5c-1.7,0-2.9,1.2-2.9,2.9v12.8c0,1.7,1.2,2.9,2.9,2.9H627.1z
			"/>
		<path d="M638.4,473.8H652v1.1l-0.6,0.6h-10.9v7.9h8.9v1.7h-8.9v8.4H652v1.7h-13.6V473.8z"/>
		<path d="M670.1,473.8h2v1.1l-5.3,9.4l6.1,9.7v1.1h-2l-5.9-9.9h-5.2v9.9h-2.1v-21.3h2.1v9.7h5.2L670.1,473.8z"/>
		<path d="M685.7,495.1h-2.1v-19.6h-6.7v-1.7h15.5v1.1l-0.6,0.6h-6.1V495.1z"/>
		<path d="M697.8,495.1v-21.3h2.1v14l-0.3,4.4h0.2l10.3-18.4h2.6v21.3h-2.1v-14l0.3-4.4h-0.2l-10.3,18.4H697.8z"/>
		<path d="M728.6,473.8c3.2,0,5,1.8,5,4.6v4.9c0,2.8-1.8,4.6-5,4.6h-7.3v7.3h-2.1v-21.3H728.6z M721.3,475.5v10.7h7.3
			c1.7,0,2.9-1.2,2.9-2.9v-4.9c0-1.7-1.2-2.9-2.9-2.9H721.3z"/>
		<path d="M744.3,495.4c-3.2,0-5-1.8-5-4.6v-12.8c0-2.8,1.8-4.6,5-4.6h5.5c3.2,0,5,1.8,5,4.6v12.8c0,2.8-1.8,4.6-5,4.6H744.3z
			 M749.8,493.8c1.7,0,2.9-1.2,2.9-2.9v-12.8c0-1.7-1.2-2.9-2.9-2.9h-5.5c-1.7,0-2.9,1.2-2.9,2.9v12.8c0,1.7,1.2,2.9,2.9,2.9H749.8z
			"/>
		<path d="M770.2,473.8c3.2,0,5,1.8,5,4.6v2c0,1.5-0.6,2.3-1.2,2.8c-0.4,0.3-0.8,0.5-1.2,0.7v0.2c0.6,0.2,1.2,0.4,1.7,0.7
			c0.8,0.6,1.7,1.5,1.7,3.1v2.7c0,2.8-1.8,4.6-5,4.6h-10v-21.3H770.2z M763.2,475.5v7.8h7c1.7,0,2.9-1.2,2.9-2.9v-2
			c0-1.7-1.2-2.9-2.9-2.9H763.2z M771.1,493.5c1.7,0,2.9-1.2,2.9-2.9v-2.7c0-1.7-1.2-2.9-2.9-2.9h-7.9v8.5H771.1z"/>
		<path d="M782.7,495.1h-2v-1.1l7.3-20.2h2.9l7.3,20.2v1.1h-2l-2-5.6h-9.5L782.7,495.1z M789.5,475.9h-0.2l-4.2,11.9h8.6
			L789.5,475.9z"/>
		<path d="M805.7,473.8v9.7h10.6v-9.7h2.1v21.3h-2.1v-9.9h-10.6v9.9h-2.1v-21.3H805.7z"/>
		<path d="M825,495.1v-21.3h2.1v14l-0.3,4.4h0.2l10.3-18.4h2.6v21.3h-2.1v-14l0.3-4.4h-0.2l-10.3,18.4H825z"/>
		<path d="M860.9,473.8v21.3h-2.1v-8.5h-5.5l-5.6,8.5h-2v-1.1l5.3-7.6c-3,0-4.9-1.8-4.9-4.4v-3.7c0-2.8,1.8-4.6,5-4.6H860.9z
			 M851.2,475.5c-1.7,0-2.9,1.2-2.9,2.9v3.7c0,1.7,1.2,2.9,2.9,2.9h7.6v-9.4H851.2z"/>
	</g>
</g>
</svg>
